<svg width="33" height="32" viewBox="0 0 33 32" fill="none" xmlns="http://www.w3.org/2000/svg">
<circle opacity="0.1" cx="16" cy="16.0001" r="16" fill="#835AFD"/>
<path d="M1.92004 6.34102V13.394V13.8977C1.92004 14.4542 2.37114 14.9053 2.92761 14.9053H9.47676L12.1678 17.3893C12.3484 17.556 12.6364 17.3918 12.5849 17.1514L11.9957 14.4015H13.7589C14.3154 14.4015 14.7665 13.9504 14.7665 13.394V6.34102C14.7665 5.78456 14.3154 5.33346 13.7589 5.33346H2.92761C2.37114 5.33346 1.92004 5.78456 1.92004 6.34102Z" fill="url(#paint0_linear_2402_1607)"/>
<path d="M32.6865 11.6743V18.7272V19.231C32.6865 19.7875 32.2354 20.2386 31.679 20.2386H25.1298L22.4388 22.7226C22.2582 22.8893 21.9701 22.7251 22.0216 22.4847L22.6109 19.7348H20.8477C20.2912 19.7348 19.8401 19.2837 19.8401 18.7272V11.6743C19.8401 11.1178 20.2912 10.6667 20.8477 10.6667H31.679C32.2354 10.6667 32.6865 11.1178 32.6865 11.6743Z" fill="url(#paint1_linear_2402_1607)"/>
<circle cx="23.3601" cy="15.2534" r="0.746667" fill="#F8F8F8"/>
<circle cx="26.1334" cy="15.2534" r="0.746667" fill="#F8F8F8"/>
<circle cx="28.9067" cy="15.2534" r="0.746667" fill="#F8F8F8"/>
<path d="M9.6001 21.4209V25.02V25.2771C9.6001 25.561 9.83232 25.7912 10.1188 25.7912H13.4903L14.8756 27.0588C14.9686 27.1439 15.1169 27.0601 15.0904 26.9374L14.787 25.5341H15.6947C15.9812 25.5341 16.2134 25.304 16.2134 25.02V21.4209C16.2134 21.1369 15.9812 20.9067 15.6947 20.9067H10.1188C9.83232 20.9067 9.6001 21.1369 9.6001 21.4209Z" fill="#D67EE2"/>
<circle cx="5.44003" cy="9.92008" r="0.746667" fill="#F8F8F8"/>
<circle cx="8.21334" cy="9.92008" r="0.746667" fill="#F8F8F8"/>
<circle cx="10.9868" cy="9.92008" r="0.746667" fill="#F8F8F8"/>
<circle opacity="0.7" cx="11.3099" cy="23.3245" r="0.429898" fill="#F8F8F8"/>
<circle opacity="0.7" cx="12.9067" cy="23.3245" r="0.429898" fill="#F8F8F8"/>
<circle opacity="0.7" cx="14.5035" cy="23.3245" r="0.429898" fill="#F8F8F8"/>
<defs>
<linearGradient id="paint0_linear_2402_1607" x1="8.34325" y1="5.33346" x2="8.34325" y2="17.4571" gradientUnits="userSpaceOnUse">
<stop stop-color="#9A78FF"/>
<stop offset="1" stop-color="#835AFD"/>
</linearGradient>
<linearGradient id="paint1_linear_2402_1607" x1="26.2633" y1="10.6667" x2="26.2633" y2="22.7904" gradientUnits="userSpaceOnUse">
<stop stop-color="#EF7EFF"/>
<stop offset="1" stop-color="#E554FA"/>
</linearGradient>
</defs>
</svg>
